<mxfile host="app.diagrams.net" modified="2022-10-03T02:29:20.859Z" agent="5.0 (Windows NT 10.0; Win64; x64) AppleWebKit/537.36 (KHTML, like Gecko) Chrome/106.0.0.0 Safari/537.36" etag="h_x-YckOvTIigUGBWGNN" version="18.0.8" type="github">
  <diagram id="nPiM0l03sHZ0EGCZjPm0" name="Page-1">
    <mxGraphModel dx="1038" dy="547" grid="1" gridSize="10" guides="1" tooltips="1" connect="1" arrows="1" fold="1" page="1" pageScale="1" pageWidth="827" pageHeight="1169" math="0" shadow="0">
      <root>
        <mxCell id="0" />
        <mxCell id="1" parent="0" />
        <mxCell id="zV3HZ2iIaUpGLrMhV5pJ-1" value="&lt;font style=&quot;font-size: 17px;&quot;&gt;GameManager&lt;/font&gt;" style="rounded=0;whiteSpace=wrap;html=1;" vertex="1" parent="1">
          <mxGeometry x="354" y="30" width="120" height="60" as="geometry" />
        </mxCell>
        <mxCell id="zV3HZ2iIaUpGLrMhV5pJ-5" value="&lt;font style=&quot;font-size: 17px;&quot;&gt;Enemy&lt;/font&gt;" style="rounded=0;whiteSpace=wrap;html=1;" vertex="1" parent="1">
          <mxGeometry x="604" y="356.61" width="120" height="60" as="geometry" />
        </mxCell>
        <mxCell id="zV3HZ2iIaUpGLrMhV5pJ-7" value="&lt;font style=&quot;font-size: 17px;&quot;&gt;StageState&lt;/font&gt;" style="rounded=0;whiteSpace=wrap;html=1;" vertex="1" parent="1">
          <mxGeometry x="354" y="150" width="120" height="60" as="geometry" />
        </mxCell>
        <mxCell id="zV3HZ2iIaUpGLrMhV5pJ-17" value="Method" style="swimlane;fontStyle=0;childLayout=stackLayout;horizontal=1;startSize=30;horizontalStack=0;resizeParent=1;resizeParentMax=0;resizeLast=0;collapsible=1;marginBottom=0;fontSize=17;" vertex="1" parent="1">
          <mxGeometry x="354" y="210" width="140" height="90" as="geometry" />
        </mxCell>
        <mxCell id="zV3HZ2iIaUpGLrMhV5pJ-18" value="life" style="text;strokeColor=default;fillColor=none;align=left;verticalAlign=middle;spacingLeft=4;spacingRight=4;overflow=hidden;points=[[0,0.5],[1,0.5]];portConstraint=eastwest;rotatable=0;fontSize=17;" vertex="1" parent="zV3HZ2iIaUpGLrMhV5pJ-17">
          <mxGeometry y="30" width="140" height="30" as="geometry" />
        </mxCell>
        <mxCell id="zV3HZ2iIaUpGLrMhV5pJ-19" value="score" style="text;strokeColor=default;fillColor=none;align=left;verticalAlign=middle;spacingLeft=4;spacingRight=4;overflow=hidden;points=[[0,0.5],[1,0.5]];portConstraint=eastwest;rotatable=0;fontSize=17;" vertex="1" parent="zV3HZ2iIaUpGLrMhV5pJ-17">
          <mxGeometry y="60" width="140" height="30" as="geometry" />
        </mxCell>
        <mxCell id="zV3HZ2iIaUpGLrMhV5pJ-26" value="" style="endArrow=classic;html=1;rounded=0;fontSize=17;exitX=0.967;exitY=0.5;exitDx=0;exitDy=0;exitPerimeter=0;startArrow=none;" edge="1" parent="1" source="zV3HZ2iIaUpGLrMhV5pJ-28">
          <mxGeometry relative="1" as="geometry">
            <mxPoint x="495.03999999999996" y="386.61" as="sourcePoint" />
            <mxPoint x="605" y="386.61" as="targetPoint" />
          </mxGeometry>
        </mxCell>
        <mxCell id="zV3HZ2iIaUpGLrMhV5pJ-28" value="IHittable" style="text;html=1;strokeColor=none;fillColor=none;align=center;verticalAlign=middle;whiteSpace=wrap;rounded=0;fontSize=17;" vertex="1" parent="1">
          <mxGeometry x="514" y="371.61" width="60" height="30" as="geometry" />
        </mxCell>
        <mxCell id="zV3HZ2iIaUpGLrMhV5pJ-29" value="" style="endArrow=none;html=1;rounded=0;fontSize=17;exitX=0.967;exitY=0.5;exitDx=0;exitDy=0;exitPerimeter=0;" edge="1" parent="1" target="zV3HZ2iIaUpGLrMhV5pJ-28">
          <mxGeometry relative="1" as="geometry">
            <mxPoint x="495.03999999999996" y="386.61" as="sourcePoint" />
            <mxPoint x="605" y="386.61" as="targetPoint" />
          </mxGeometry>
        </mxCell>
        <mxCell id="zV3HZ2iIaUpGLrMhV5pJ-6" value="&lt;font style=&quot;font-size: 17px;&quot;&gt;Player&lt;/font&gt;" style="rounded=0;whiteSpace=wrap;html=1;" vertex="1" parent="1">
          <mxGeometry x="354" y="356.61" width="140" height="60" as="geometry" />
        </mxCell>
        <mxCell id="zV3HZ2iIaUpGLrMhV5pJ-31" value="" style="endArrow=classic;html=1;rounded=0;fontSize=17;exitX=0.5;exitY=1;exitDx=0;exitDy=0;entryX=0.5;entryY=0;entryDx=0;entryDy=0;" edge="1" parent="1" source="zV3HZ2iIaUpGLrMhV5pJ-1" target="zV3HZ2iIaUpGLrMhV5pJ-7">
          <mxGeometry width="50" height="50" relative="1" as="geometry">
            <mxPoint x="400" y="150" as="sourcePoint" />
            <mxPoint x="450" y="100" as="targetPoint" />
          </mxGeometry>
        </mxCell>
        <mxCell id="zV3HZ2iIaUpGLrMhV5pJ-32" value="" style="endArrow=classic;html=1;rounded=0;fontSize=17;exitX=0.497;exitY=1.113;exitDx=0;exitDy=0;exitPerimeter=0;entryX=0.5;entryY=0;entryDx=0;entryDy=0;" edge="1" parent="1" target="zV3HZ2iIaUpGLrMhV5pJ-6">
          <mxGeometry width="50" height="50" relative="1" as="geometry">
            <mxPoint x="423.5799999999999" y="300" as="sourcePoint" />
            <mxPoint x="500" y="316.61" as="targetPoint" />
          </mxGeometry>
        </mxCell>
        <mxCell id="zV3HZ2iIaUpGLrMhV5pJ-14" value="Move" style="text;strokeColor=default;fillColor=none;align=left;verticalAlign=middle;spacingLeft=4;spacingRight=4;overflow=hidden;points=[[0,0.5],[1,0.5]];portConstraint=eastwest;rotatable=0;fontSize=17;" vertex="1" parent="1">
          <mxGeometry x="354" y="416.61" width="140" height="30" as="geometry" />
        </mxCell>
        <mxCell id="zV3HZ2iIaUpGLrMhV5pJ-16" value="HP" style="text;strokeColor=default;fillColor=none;align=left;verticalAlign=middle;spacingLeft=4;spacingRight=4;overflow=hidden;points=[[0,0.5],[1,0.5]];portConstraint=eastwest;rotatable=0;fontSize=17;" vertex="1" parent="1">
          <mxGeometry x="354" y="446.61" width="140" height="30" as="geometry" />
        </mxCell>
        <mxCell id="zV3HZ2iIaUpGLrMhV5pJ-15" value="Attack" style="text;strokeColor=default;fillColor=none;align=left;verticalAlign=middle;spacingLeft=4;spacingRight=4;overflow=hidden;points=[[0,0.5],[1,0.5]];portConstraint=eastwest;rotatable=0;fontSize=17;" vertex="1" parent="1">
          <mxGeometry x="354" y="476.61" width="140" height="30" as="geometry" />
        </mxCell>
        <mxCell id="zV3HZ2iIaUpGLrMhV5pJ-22" value="Spawn" style="text;strokeColor=default;fillColor=none;align=left;verticalAlign=middle;spacingLeft=4;spacingRight=4;overflow=hidden;points=[[0,0.5],[1,0.5]];portConstraint=eastwest;rotatable=0;fontSize=17;" vertex="1" parent="1">
          <mxGeometry x="604" y="416.61" width="140" height="30" as="geometry" />
        </mxCell>
        <mxCell id="zV3HZ2iIaUpGLrMhV5pJ-23" value="Attack" style="text;strokeColor=default;fillColor=none;align=left;verticalAlign=middle;spacingLeft=4;spacingRight=4;overflow=hidden;points=[[0,0.5],[1,0.5]];portConstraint=eastwest;rotatable=0;fontSize=17;" vertex="1" parent="1">
          <mxGeometry x="604" y="476.61" width="140" height="30" as="geometry" />
        </mxCell>
        <mxCell id="zV3HZ2iIaUpGLrMhV5pJ-24" value="Damage" style="text;strokeColor=default;fillColor=none;align=left;verticalAlign=middle;spacingLeft=4;spacingRight=4;overflow=hidden;points=[[0,0.5],[1,0.5]];portConstraint=eastwest;rotatable=0;fontSize=17;" vertex="1" parent="1">
          <mxGeometry x="604" y="446.61" width="140" height="30" as="geometry" />
        </mxCell>
      </root>
    </mxGraphModel>
  </diagram>
</mxfile>
